<?xml version="1.0" encoding="UTF-8"?>
<svg xmlns="http://www.w3.org/2000/svg" xmlns:xlink="http://www.w3.org/1999/xlink" viewBox="0 0 250 250" width="250px" height="250px">
<g id="surface5564701">
<path style=" stroke:none;fill-rule:nonzero;fill:rgb(72.156864%,58.431375%,0%);fill-opacity:1;" d="M 0 85 L 10 110 L 0 110 L 10 135 L 0 135 L 30 175 L 26.679688 165 L 223.339844 165 L 220 175 L 250 135 L 240 135 L 250 110 L 240 110 L 250 85 Z M 22.851562 95 L 227.128906 95 L 220 120 L 230 120 L 220 145 L 230 145 L 226.660156 155 L 23.320312 155 L 20 145 L 30 145 L 20 120 L 30 120 Z M 40 105 L 40 130 L 65 130 L 65 135 L 40 135 L 40 145 L 75 145 L 75 120 L 50 120 L 50 115 L 75 115 L 75 105 Z M 80 105 L 80 145 L 90 145 L 90 126.660156 L 100 145 L 110 126.660156 L 110 145 L 120 145 L 120 105 L 110 105 L 100 125 L 90 105 Z M 125 105 L 125 145 L 135 145 L 135 105 Z M 140 105 L 140 115 L 150 115 L 150 145 L 160 145 L 160 115 L 170 115 L 170 105 Z M 175 105 L 175 145 L 210 145 L 210 135 L 185 135 L 185 130 L 210 130 L 210 120 L 185 120 L 185 115 L 210 115 L 210 105 Z M 175 105 "/>
</g>
</svg>
