<?xml version="1.0" encoding="UTF-8"?>
<svg xmlns="http://www.w3.org/2000/svg" xmlns:xlink="http://www.w3.org/1999/xlink" viewBox="0 0 150 150" width="150px" height="150px">
<g id="surface12662229">
<path style=" stroke:none;fill-rule:nonzero;fill:rgb(72.156864%,58.431375%,0%);fill-opacity:1;" d="M 0 51 L 6 66 L 0 66 L 6 81 L 0 81 L 18 105 L 16.007812 99 L 134.003906 99 L 132 105 L 150 81 L 144 81 L 150 66 L 144 66 L 150 51 Z M 13.710938 57 L 136.277344 57 L 132 72 L 138 72 L 132 87 L 138 87 L 135.996094 93 L 13.992188 93 L 12 87 L 18 87 L 12 72 L 18 72 Z M 24 63 L 24 78 L 39 78 L 39 81 L 24 81 L 24 87 L 45 87 L 45 72 L 30 72 L 30 69 L 45 69 L 45 63 Z M 48 63 L 48 87 L 54 87 L 54 75.996094 L 60 87 L 66 75.996094 L 66 87 L 72 87 L 72 63 L 66 63 L 60 75 L 54 63 Z M 75 63 L 75 87 L 81 87 L 81 63 Z M 84 63 L 84 69 L 90 69 L 90 87 L 96 87 L 96 69 L 102 69 L 102 63 Z M 105 63 L 105 87 L 126 87 L 126 81 L 111 81 L 111 78 L 126 78 L 126 72 L 111 72 L 111 69 L 126 69 L 126 63 Z M 105 63 "/>
</g>
</svg>
